<svg xmlns="http://www.w3.org/2000/svg" xmlns:xlink="http://www.w3.org/1999/xlink" width="500" zoomAndPan="magnify" viewBox="0 0 375 374.999991" height="500" preserveAspectRatio="xMidYMid meet" version="1.0"><defs><g/><clipPath id="04c0c1fee7"><path d="M 187.5 0 C 83.945312 0 0 83.945312 0 187.5 C 0 291.054688 83.945312 375 187.5 375 C 291.054688 375 375 291.054688 375 187.5 C 375 83.945312 291.054688 0 187.5 0 Z M 187.5 0 " clip-rule="nonzero"/></clipPath></defs><g clip-path="url(#04c0c1fee7)"><rect x="-37.5" width="450" fill="#000000" y="-37.499999" height="449.999989" fill-opacity="1"/></g><g fill="#ffffff" fill-opacity="1"><g transform="translate(52.014261, 283.971327)"><g><path d="M 112.167969 -92.832031 L 158.585938 -92.832031 L 158.585938 -46.414062 L 205 -46.414062 L 205 0 L 251.414062 0 L 251.414062 -270.753906 L 205 -270.753906 L 205 -92.832031 L 158.585938 -92.832031 L 158.585938 -176.378906 L 112.167969 -176.378906 Z M 65.753906 0 L 65.753906 -46.414062 L 112.167969 -46.414062 L 112.167969 -92.832031 L 65.753906 -92.832031 L 65.753906 -270.753906 L 19.339844 -270.753906 L 19.339844 0 Z M 65.753906 0 "/></g></g></g></svg>